<svg width="267" height="212" viewBox="0 0 267 212" fill="none" xmlns="http://www.w3.org/2000/svg">
<g clip-path="url(#clip0_203_144)">
<path d="M173.365 236.929L173.946 237.572C180.665 245.087 184.675 252.062 185.91 258.406C185.93 258.498 185.943 258.59 185.963 258.682L185.533 258.764L185.119 258.837C183.858 251.92 179.164 244.77 173.306 238.214C173.119 238.001 172.929 237.785 172.733 237.574C170.229 234.821 167.536 232.179 164.813 229.71C164.604 229.517 164.389 229.323 164.174 229.13C160.563 225.889 156.93 222.956 153.691 220.484C153.463 220.308 153.231 220.136 153.003 219.966C147.502 215.804 143.234 213.046 142.283 212.441C142.168 212.366 142.104 212.326 142.089 212.316L142.314 211.957L142.314 211.951L142.543 211.589C142.557 211.599 142.776 211.731 143.17 211.988C144.651 212.942 148.63 215.567 153.581 219.3C153.804 219.469 154.035 219.642 154.263 219.818C156.894 221.821 159.772 224.116 162.678 226.629C163.409 227.259 164.122 227.888 164.816 228.516C165.035 228.706 165.25 228.899 165.459 229.092C168.403 231.762 171.038 234.374 173.365 236.929Z" fill="white"/>
<path d="M105.366 60.8191H40.7551C40.2174 60.8185 39.7019 60.6048 39.3217 60.2248C38.9415 59.8449 38.7276 59.3298 38.7271 58.7924V9.76526C38.7276 9.22792 38.9415 8.71275 39.3217 8.33277C39.7019 7.9528 40.2174 7.73904 40.7551 7.7384H120.062C120.599 7.73904 121.115 7.9528 121.495 8.33277C121.875 8.71275 122.089 9.22792 122.09 9.76526V44.1064C122.085 48.5373 120.321 52.7854 117.186 55.9185C114.051 59.0517 109.8 60.8141 105.366 60.8191Z" fill="white"/>
<path d="M105.366 61.0027H40.7552C40.1689 61.002 39.6067 60.7689 39.192 60.3546C38.7774 59.9402 38.5441 59.3784 38.5435 58.7924V9.7652C38.5441 9.17917 38.7773 8.61732 39.192 8.20292C39.6066 7.78851 40.1688 7.55539 40.7552 7.55469H120.062C120.648 7.55536 121.21 7.78847 121.625 8.20289C122.04 8.6173 122.273 9.17916 122.274 9.7652V44.1063C122.268 48.5859 120.486 52.8807 117.316 56.0482C114.146 59.2158 109.849 60.9976 105.366 61.0027V61.0027ZM40.7552 8.28931C40.3637 8.28979 39.9884 8.44545 39.7115 8.72213C39.4347 8.99882 39.279 9.37394 39.2786 9.7652V58.7924C39.279 59.1836 39.4347 59.5587 39.7116 59.8354C39.9884 60.112 40.3637 60.2676 40.7552 60.2681H105.366C109.654 60.2632 113.764 58.5589 116.796 55.5291C119.828 52.4992 121.534 48.3912 121.538 44.1063V9.7652C121.538 9.37394 121.382 8.99882 121.105 8.72213C120.829 8.44545 120.453 8.28979 120.062 8.28931H40.7552Z" fill="#CCCCCC"/>
<path d="M104.385 24.2958H56.4321C55.9919 24.2958 55.5697 24.121 55.2584 23.8099C54.9471 23.4988 54.7722 23.0769 54.7722 22.637C54.7722 22.197 54.9471 21.7751 55.2584 21.464C55.5697 21.1529 55.9919 20.9781 56.4321 20.9781H104.385C104.825 20.9788 105.246 21.1539 105.557 21.4649C105.868 21.7759 106.042 22.1974 106.042 22.637C106.042 23.0765 105.868 23.498 105.557 23.809C105.246 24.1201 104.825 24.2951 104.385 24.2958V24.2958Z" fill="#CCCCCC"/>
<path d="M104.385 35.7231H56.4321C55.9919 35.7231 55.5697 35.5484 55.2584 35.2373C54.9471 34.9262 54.7722 34.5043 54.7722 34.0643C54.7722 33.6244 54.9471 33.2025 55.2584 32.8914C55.5697 32.5803 55.9919 32.4055 56.4321 32.4055H104.385C104.825 32.4055 105.247 32.5803 105.559 32.8914C105.87 33.2025 106.045 33.6244 106.045 34.0643C106.045 34.5043 105.87 34.9262 105.559 35.2373C105.247 35.5484 104.825 35.7231 104.385 35.7231Z" fill="#CCCCCC"/>
<path d="M104.385 47.4772H56.4321C55.9919 47.4772 55.5697 47.3024 55.2584 46.9913C54.9471 46.6802 54.7722 46.2583 54.7722 45.8184C54.7722 45.3784 54.9471 44.9565 55.2584 44.6454C55.5697 44.3343 55.9919 44.1595 56.4321 44.1595H104.385C104.825 44.1595 105.247 44.3343 105.559 44.6454C105.87 44.9565 106.045 45.3784 106.045 45.8184C106.045 46.2583 105.87 46.6802 105.559 46.9913C105.247 47.3024 104.825 47.4772 104.385 47.4772Z" fill="#CCCCCC"/>
<path d="M119.466 19.8118C124.941 19.8118 129.379 15.3768 129.379 9.90589C129.379 4.43502 124.941 0 119.466 0C113.992 0 109.554 4.43502 109.554 9.90589C109.554 15.3768 113.992 19.8118 119.466 19.8118Z" fill="#6C63FF"/>
<path d="M118.114 15.0614C117.943 15.0614 117.774 15.0216 117.621 14.9451C117.468 14.8685 117.335 14.7574 117.232 14.6206L114.528 11.0172C114.441 10.9014 114.378 10.7697 114.342 10.6295C114.306 10.4894 114.298 10.3435 114.318 10.2002C114.339 10.057 114.387 9.91919 114.461 9.79469C114.535 9.67018 114.632 9.56141 114.748 9.4746C114.864 9.38778 114.996 9.32462 115.136 9.28871C115.276 9.2528 115.422 9.24486 115.566 9.26532C115.709 9.28579 115.847 9.33427 115.972 9.408C116.096 9.48173 116.205 9.57926 116.292 9.69502L118.061 12.0522L122.605 5.24081C122.767 4.99764 123.019 4.82884 123.306 4.77153C123.593 4.71421 123.891 4.77308 124.134 4.93519C124.377 5.0973 124.546 5.34937 124.604 5.63594C124.661 5.92251 124.602 6.22011 124.44 6.46327L119.031 14.5707C118.934 14.7173 118.802 14.8384 118.648 14.9237C118.493 15.009 118.321 15.0561 118.145 15.0611C118.134 15.0613 118.124 15.0614 118.114 15.0614Z" fill="white"/>
<path d="M81.5184 103.401H16.9076C12.4737 103.396 8.22286 101.634 5.08763 98.5008C1.95241 95.3676 0.18884 91.1195 0.183838 86.6886V52.3473C0.184469 51.8099 0.398357 51.2948 0.778579 50.9148C1.1588 50.5348 1.67431 50.3211 2.21203 50.3204H81.5184C82.0561 50.3211 82.5716 50.5348 82.9518 50.9148C83.3321 51.2948 83.546 51.8099 83.5466 52.3473V101.374C83.546 101.912 83.3321 102.427 82.9518 102.807C82.5716 103.187 82.0561 103.401 81.5184 103.401V103.401Z" fill="white"/>
<path d="M81.5183 103.585H16.9075C12.4249 103.58 8.12739 101.798 4.95773 98.6306C1.78806 95.463 0.00509657 91.1683 0 86.6886V52.3474C0.000664435 51.7613 0.233925 51.1994 0.648605 50.785C1.06328 50.3706 1.62552 50.1375 2.21197 50.1368H81.5183C82.1048 50.1375 82.667 50.3706 83.0817 50.785C83.4964 51.1994 83.7296 51.7613 83.7303 52.3474V101.375C83.7296 101.961 83.4964 102.522 83.0817 102.937C82.667 103.351 82.1048 103.584 81.5183 103.585ZM2.21197 50.8715C1.82043 50.8719 1.44505 51.0276 1.16819 51.3043C0.891331 51.5809 0.735581 51.9561 0.735109 52.3474V86.6886C0.739952 90.9735 2.44538 95.0815 5.47725 98.1114C8.50911 101.141 12.6198 102.846 16.9075 102.85H81.5183C81.9099 102.85 82.2853 102.694 82.5622 102.418C82.839 102.141 82.9948 101.766 82.9952 101.375V52.3474C82.9947 51.9561 82.839 51.5809 82.5621 51.3043C82.2853 51.0276 81.9099 50.8719 81.5183 50.8715H2.21197Z" fill="#CCCCCC"/>
<path d="M65.8414 66.878H17.8887C17.4484 66.878 17.0262 66.7032 16.7149 66.3921C16.4036 66.081 16.2288 65.6591 16.2288 65.2191C16.2288 64.7792 16.4036 64.3573 16.7149 64.0462C17.0262 63.7351 17.4484 63.5603 17.8887 63.5603H65.8414C66.2817 63.5603 66.7039 63.7351 67.0152 64.0462C67.3264 64.3573 67.5013 64.7792 67.5013 65.2191C67.5013 65.6591 67.3264 66.081 67.0152 66.3921C66.7039 66.7032 66.2817 66.878 65.8414 66.878Z" fill="#CCCCCC"/>
<path d="M65.8414 78.3053H17.8887C17.4484 78.3053 17.0262 78.1305 16.7149 77.8194C16.4036 77.5083 16.2288 77.0864 16.2288 76.6465C16.2288 76.2065 16.4036 75.7846 16.7149 75.4735C17.0262 75.1624 17.4484 74.9877 17.8887 74.9877H65.8414C66.2817 74.9877 66.7039 75.1624 67.0152 75.4735C67.3265 75.7846 67.5013 76.2065 67.5013 76.6465C67.5013 77.0864 67.3265 77.5083 67.0152 77.8194C66.7039 78.1305 66.2817 78.3053 65.8414 78.3053Z" fill="#CCCCCC"/>
<path d="M65.8414 90.0593H17.8887C17.4484 90.0593 17.0262 89.8846 16.7149 89.5735C16.4036 89.2624 16.2288 88.8405 16.2288 88.4005C16.2288 87.9606 16.4036 87.5386 16.7149 87.2276C17.0262 86.9165 17.4484 86.7417 17.8887 86.7417H65.8414C66.2817 86.7417 66.7039 86.9165 67.0152 87.2276C67.3265 87.5386 67.5013 87.9606 67.5013 88.4005C67.5013 88.8405 67.3265 89.2624 67.0152 89.5735C66.7039 89.8846 66.2817 90.0593 65.8414 90.0593Z" fill="#CCCCCC"/>
<path d="M81.6082 62.7874C87.0827 62.7874 91.5206 58.3523 91.5206 52.8815C91.5206 47.4106 87.0827 42.9756 81.6082 42.9756C76.1337 42.9756 71.6958 47.4106 71.6958 52.8815C71.6958 58.3523 76.1337 62.7874 81.6082 62.7874Z" fill="#6C63FF"/>
<path d="M80.256 58.0371C80.0848 58.0371 79.916 57.9973 79.7629 57.9208C79.6098 57.8443 79.4766 57.7332 79.374 57.5963L76.6697 53.9929C76.5828 53.8772 76.5196 53.7454 76.4837 53.6053C76.4478 53.4651 76.4398 53.3192 76.4603 53.176C76.4808 53.0327 76.5293 52.8949 76.6031 52.7704C76.6769 52.6459 76.7745 52.5371 76.8903 52.4503C77.0061 52.3635 77.1379 52.3003 77.2782 52.2644C77.4185 52.2285 77.5644 52.2206 77.7078 52.241C77.8511 52.2615 77.989 52.31 78.1136 52.3837C78.2382 52.4574 78.347 52.555 78.4339 52.6707L80.2031 55.028L84.7471 48.2165C84.9094 47.9733 85.1616 47.8045 85.4483 47.7472C85.7351 47.6899 86.0329 47.7488 86.2762 47.9109C86.5195 48.073 86.6885 48.3251 86.7458 48.6116C86.8032 48.8982 86.7443 49.1958 86.582 49.439L81.1735 57.5464C81.0757 57.693 80.9441 57.8141 80.7898 57.8994C80.6355 57.9847 80.463 58.0318 80.2867 58.0368C80.2764 58.037 80.2662 58.0371 80.256 58.0371Z" fill="white"/>
<path d="M162.022 149.1H71.6166C67.1827 149.095 62.9318 147.333 59.7966 144.199C56.6614 141.066 54.8978 136.818 54.8928 132.387V81.8767C54.8936 81.184 55.1693 80.5199 55.6594 80.0301C56.1495 79.5404 56.814 79.2648 57.5072 79.264H162.022C162.715 79.2648 163.379 79.5404 163.869 80.0302C164.359 80.52 164.635 81.184 164.636 81.8767V146.487C164.635 147.18 164.359 147.844 163.869 148.334C163.379 148.824 162.715 149.099 162.022 149.1V149.1Z" fill="white"/>
<path d="M162.022 149.284H71.6165C67.1339 149.279 62.8364 147.497 59.6667 144.329C56.497 141.162 54.7141 136.867 54.709 132.387V81.8766C54.7098 81.1352 55.0049 80.4245 55.5295 79.9003C56.054 79.376 56.7653 79.0812 57.5071 79.0803H162.022C162.763 79.0812 163.475 79.3761 163.999 79.9003C164.524 80.4245 164.819 81.1353 164.82 81.8766V146.487C164.819 147.229 164.524 147.939 163.999 148.464C163.475 148.988 162.763 149.283 162.022 149.284V149.284ZM57.5071 79.8149C56.9602 79.8156 56.4358 80.033 56.049 80.4195C55.6623 80.806 55.4447 81.33 55.4441 81.8766V132.387C55.4489 136.672 57.1544 140.78 60.1862 143.81C63.2181 146.84 67.3288 148.544 71.6165 148.549H162.022C162.569 148.548 163.093 148.331 163.48 147.944C163.866 147.558 164.084 147.034 164.084 146.487V81.8766C164.084 81.33 163.866 80.806 163.48 80.4195C163.093 80.033 162.569 79.8156 162.022 79.8149H57.5071Z" fill="#CCCCCC"/>
<path d="M141.362 101.026H78.1669C77.8794 101.026 77.5946 100.97 77.3289 100.86C77.0632 100.75 76.8217 100.589 76.6183 100.386C76.4149 100.183 76.2535 99.9423 76.1433 99.6769C76.0332 99.4115 75.9766 99.127 75.9766 98.8396C75.9766 98.5523 76.0332 98.2678 76.1433 98.0024C76.2535 97.737 76.4149 97.4959 76.6183 97.2929C76.8217 97.0898 77.0632 96.9289 77.3289 96.8192C77.5946 96.7095 77.8794 96.6532 78.1669 96.6536H141.362C141.649 96.6532 141.934 96.7095 142.2 96.8192C142.466 96.9289 142.707 97.0898 142.91 97.2929C143.114 97.4959 143.275 97.737 143.385 98.0024C143.495 98.2678 143.552 98.5523 143.552 98.8396C143.552 99.127 143.495 99.4115 143.385 99.6769C143.275 99.9423 143.114 100.183 142.91 100.386C142.707 100.589 142.466 100.75 142.2 100.86C141.934 100.97 141.649 101.026 141.362 101.026Z" fill="#CCCCCC"/>
<path d="M141.362 116.085H78.1669C77.8794 116.086 77.5946 116.03 77.3289 115.92C77.0632 115.81 76.8217 115.649 76.6183 115.446C76.4148 115.243 76.2535 115.002 76.1433 114.737C76.0332 114.471 75.9766 114.187 75.9766 113.899C75.9766 113.612 76.0332 113.328 76.1433 113.062C76.2535 112.797 76.4148 112.556 76.6183 112.353C76.8217 112.15 77.0632 111.989 77.3289 111.879C77.5946 111.769 77.8794 111.713 78.1669 111.713H141.362C141.942 111.713 142.498 111.944 142.909 112.354C143.319 112.764 143.549 113.32 143.549 113.899C143.549 114.479 143.319 115.035 142.909 115.445C142.498 115.855 141.942 116.085 141.362 116.085Z" fill="#CCCCCC"/>
<path d="M141.362 131.576H78.167C77.5868 131.576 77.0304 131.345 76.6202 130.935C76.21 130.525 75.9795 129.969 75.9795 129.389C75.9795 128.81 76.21 128.254 76.6202 127.844C77.0304 127.434 77.5868 127.203 78.167 127.203H141.362C141.649 127.203 141.934 127.259 142.2 127.369C142.466 127.479 142.707 127.64 142.91 127.843C143.114 128.046 143.275 128.287 143.385 128.552C143.496 128.818 143.552 129.102 143.552 129.389C143.552 129.677 143.496 129.961 143.385 130.227C143.275 130.492 143.114 130.733 142.91 130.936C142.707 131.139 142.466 131.3 142.2 131.41C141.934 131.52 141.649 131.576 141.362 131.576Z" fill="#CCCCCC"/>
<path d="M162.35 95.7578C169.28 95.7578 174.898 90.1436 174.898 83.2181C174.898 76.2927 169.28 70.6785 162.35 70.6785C155.42 70.6785 149.802 76.2927 149.802 83.2181C149.802 90.1436 155.42 95.7578 162.35 95.7578Z" fill="#6C63FF"/>
<path d="M160.638 89.7445C160.422 89.7445 160.208 89.6941 160.014 89.5972C159.82 89.5004 159.652 89.3597 159.522 89.1864L156.098 84.625C155.988 84.4785 155.908 84.3117 155.863 84.1343C155.818 83.9568 155.807 83.7722 155.833 83.5909C155.859 83.4095 155.921 83.2351 156.014 83.0775C156.108 82.9198 156.231 82.7822 156.378 82.6723C156.524 82.5624 156.691 82.4824 156.869 82.437C157.046 82.3915 157.231 82.3814 157.413 82.4074C157.594 82.4333 157.769 82.4946 157.926 82.588C158.084 82.6813 158.222 82.8048 158.332 82.9513L160.571 85.9353L166.324 77.3128C166.529 77.0055 166.848 76.7923 167.211 76.72C167.574 76.6478 167.95 76.7224 168.258 76.9274C168.566 77.1324 168.78 77.4512 168.852 77.8136C168.925 78.176 168.851 78.5525 168.646 78.8603L161.8 89.1233C161.676 89.3089 161.509 89.4621 161.314 89.5702C161.119 89.6782 160.9 89.7378 160.677 89.744C160.664 89.7443 160.651 89.7445 160.638 89.7445Z" fill="white"/>
<path d="M166.502 87.5367C166.613 88.1003 166.846 88.6327 167.185 89.0965C167.524 89.5603 167.961 89.9442 168.464 90.2211C168.968 90.498 169.526 90.6612 170.1 90.6992C170.673 90.7372 171.248 90.6491 171.784 90.4411L177.998 96.9249L182.862 94.1118L173.957 85.0787C173.548 84.2024 172.831 83.5067 171.943 83.1233C171.054 82.7399 170.056 82.6955 169.137 82.9984C168.218 83.3014 167.442 83.9308 166.957 84.7672C166.471 85.6036 166.309 86.589 166.502 87.5367V87.5367Z" fill="#FFB6B6"/>
<path d="M206.72 120.138L209.522 117.241L193.321 102.246L177.015 87.6964L172.499 94.0737L189.586 110.013L206.72 120.138Z" fill="#E4E4E4"/>
<path d="M196.766 218.542C196.766 214.901 196.838 212.305 196.896 210.219C197.065 204.112 197.111 202.471 194.773 191.956L194.172 189.256L190.631 199.872C189.5 203.259 188.922 206.806 188.919 210.376L194.379 243.115H183.22L175.046 207.721L175.042 196.894C174.322 196.15 173.92 195.154 173.92 194.119C173.92 193.083 174.322 192.088 175.042 191.343L177.758 175.123L180.506 153.263H210.612C210.612 153.263 215.925 164.269 210.645 175.185L210.644 218.555L207.916 248.543H199.494L196.766 218.542Z" fill="#2F2E41"/>
<path d="M208.771 155.909L180.612 153.564L180.465 153.552L182.713 113.128C182.845 110.586 183.737 108.143 185.274 106.114C186.812 104.085 188.923 102.563 191.335 101.746V98.9176C191.336 98.2174 191.614 97.5461 192.11 97.051C192.605 96.5559 193.277 96.2774 193.978 96.2766H198.092C198.583 96.275 199.065 96.4109 199.483 96.6689C199.901 96.9269 200.238 97.2968 200.456 97.7365L202.468 101.758L210.076 107.84C213.833 110.844 210.809 140.963 210.646 142.552L212.486 151.746C212.587 152.252 212.575 152.774 212.45 153.274C212.326 153.775 212.092 154.242 211.765 154.641C211.438 155.04 211.027 155.362 210.561 155.584C210.095 155.805 209.585 155.921 209.069 155.922C208.97 155.922 208.871 155.917 208.771 155.909Z" fill="#E4E4E4"/>
<path d="M178.95 166.583C179.396 166.219 179.756 165.763 180.005 165.246C180.255 164.728 180.388 164.162 180.395 163.588C180.402 163.014 180.283 162.445 180.046 161.921C179.81 161.398 179.461 160.933 179.025 160.559L181.819 152.026L177.044 149.064L173.268 161.17C172.687 161.944 172.411 162.903 172.491 163.867C172.572 164.831 173.003 165.732 173.703 166.399C174.404 167.066 175.325 167.453 176.292 167.487C177.259 167.521 178.205 167.199 178.95 166.583V166.583Z" fill="#FFB6B6"/>
<path d="M188.771 108.573L184.894 107.282L179.295 132.247L174.137 157.076L181.894 158.216L187.909 131.817L188.771 108.573Z" fill="#E4E4E4"/>
<path d="M193.004 93.6927C198.112 93.6927 202.253 89.5547 202.253 84.4503C202.253 79.3458 198.112 75.2079 193.004 75.2079C187.896 75.2079 183.756 79.3458 183.756 84.4503C183.756 89.5547 187.896 93.6927 193.004 93.6927Z" fill="#FFB6B6"/>
<path d="M180.56 79.9241C180.645 79.0482 180.897 78.1965 181.3 77.4144C181.733 78.3539 183.081 78.5169 184.004 78.0493C184.927 77.5817 185.546 76.6936 186.205 75.8968C187.946 73.7942 190.34 72.0887 193.052 71.778C195.765 71.4674 198.756 72.8359 199.781 75.3651C200.241 74.7269 201.222 74.6559 201.916 75.0268C202.587 75.4494 203.11 76.0689 203.414 76.8005C204.097 78.2004 204.483 79.7262 204.548 81.2822C204.612 82.8382 204.355 84.3907 203.79 85.8425C202.648 88.7313 199.827 92.6234 196.917 93.7137C195.15 94.3756 193.365 93.5284 191.486 93.7137C191.584 91.6642 191.982 89.1353 192.08 87.0858C192.134 85.9634 192.142 84.7076 191.375 83.886C191.14 83.6627 190.858 83.4939 190.55 83.3914C190.242 83.2889 189.916 83.2552 189.593 83.2928C189.271 83.3304 188.961 83.4383 188.685 83.6089C188.409 83.7795 188.174 84.0087 187.997 84.2801C187.902 83.6428 187.686 83.0294 187.362 82.4725C187.196 82.1964 186.955 81.9722 186.668 81.8252C186.381 81.6783 186.059 81.6144 185.737 81.6409C184.953 81.7694 184.468 82.5743 183.748 82.9114C183.339 83.0752 182.89 83.1102 182.46 83.0118C182.031 82.9134 181.642 82.6862 181.345 82.3607C181.057 82.0283 180.839 81.6411 180.704 81.2225C180.569 80.8038 180.52 80.3622 180.56 79.9241V79.9241Z" fill="#2F2E41"/>
<path opacity="0.1" d="M194.201 131.705L183.34 153.414H191.486L194.201 131.705Z" fill="black"/>
</g>
<defs>
<clipPath id="clip0_203_144">
<rect width="267" height="259" fill="white"/>
</clipPath>
</defs>
</svg>
