<svg width="1022" height="243" viewBox="0 0 1022 243" fill="none" xmlns="http://www.w3.org/2000/svg">
<path d="M0 7.68883L34.0667 27.4648C68.1333 47.2407 136.267 86.7925 204.4 100.018C272.533 112.748 340.667 100.389 408.8 73.5674C476.933 47.2407 545.067 7.68882 613.2 1.13805C681.333 -5.90713 749.467 21.2848 817.6 40.6899C885.733 60.8366 953.867 73.1966 987.933 80.2418L1022 86.7925V245H987.933C953.867 245 885.733 245 817.6 245C749.467 245 681.333 245 613.2 245C545.067 245 476.933 245 408.8 245C340.667 245 272.533 245 204.4 245C136.267 245 68.1333 245 34.0667 245H0V7.68883Z" fill="url(#paint0_linear_203_141)" fill-opacity="0.68"/>
<defs>
<linearGradient id="paint0_linear_203_141" x1="511" y1="0" x2="511" y2="245" gradientUnits="userSpaceOnUse">
<stop stop-color="#6C63FF"/>
<stop offset="1" stop-color="#4D6CFF"/>
</linearGradient>
</defs>
</svg>
