<svg width="1021" height="245" viewBox="0 0 1021 245" fill="none" xmlns="http://www.w3.org/2000/svg">
<path d="M1021 237.311L986.933 217.535C952.867 197.759 884.733 158.207 816.6 144.982C748.467 132.252 680.333 144.611 612.2 171.433C544.067 197.759 475.933 237.311 407.8 243.862C339.667 250.907 271.533 223.715 203.4 204.31C135.267 184.163 67.1333 171.803 33.0667 164.758L-1 158.207V0H33.0667C67.1333 0 135.267 0 203.4 0C271.533 0 339.667 0 407.8 0C475.933 0 544.067 0 612.2 0C680.333 0 748.467 0 816.6 0C884.733 0 952.867 0 986.933 0H1021V237.311Z" fill="url(#paint0_linear_203_7)" fill-opacity="0.68"/>
<defs>
<linearGradient id="paint0_linear_203_7" x1="510" y1="245" x2="510" y2="0" gradientUnits="userSpaceOnUse">
<stop stop-color="#ACFFAD"/>
<stop offset="1" stop-color="#50CB93"/>
</linearGradient>
</defs>
</svg>
